<svg xmlns="http://www.w3.org/2000/svg" viewBox="0 0 847.73 136.85"><title>shutterstock_500883007 [Converti]</title><path d="M81.09,92.92H60.33a4.91,4.91,0,0,0-4.77,4.91h0a4.9,4.9,0,0,0,4.77,4.89H81.22A4.91,4.91,0,0,0,86,97.82h0a4.91,4.91,0,0,0-4.77-4.91ZM54.77,53.72h-50A4.92,4.92,0,0,0,0,58.62H0a4.93,4.93,0,0,0,4.78,4.91H54.9a4.92,4.92,0,0,0,4.78-4.91h0a4.91,4.91,0,0,0-4.78-4.9Zm58.57-19.6H81.82a4.91,4.91,0,0,0-4.9,4.9h0a4.91,4.91,0,0,0,4.9,4.9H101a4.91,4.91,0,0,1,4.74,4.89h0a4.92,4.92,0,0,1-4.87,4.9H75.45a4.92,4.92,0,0,0-4.78,4.9h0a4.92,4.92,0,0,0,4.78,4.91h50.86a4.9,4.9,0,0,1,4.9,4.89h0a4.9,4.9,0,0,1-4.9,4.89H34.2a4.92,4.92,0,0,0-4.77,4.9h0a4.9,4.9,0,0,0,4.77,4.89h74a4.94,4.94,0,0,1,4.9,4.9v0a4.92,4.92,0,0,1-4.78,4.89H97.16a4.92,4.92,0,0,0-4.9,4.91h0a4.93,4.93,0,0,0,4.9,4.89h26.4a4.94,4.94,0,0,1,4.77,4.9h0a5,5,0,0,1-4.9,4.89H83.55a4.92,4.92,0,0,0-4.78,4.9h0a4.92,4.92,0,0,0,4.9,4.91H147.6l25.16,14.52V68.43l-42.44-24.5-16.81-9.71Z" style="fill:#dce4f7;fill-rule:evenodd"/><path d="M172.76,0,232,34.21,172.76,68.43,113.51,34.21l.17-.08h7.8a4.91,4.91,0,0,0,4.9-4.9h0a4.91,4.91,0,0,0-4.9-4.9H69.29c-6.33-.08-6.36-9.8.12-9.8H147.6Z" style="fill:#e9eff4;fill-rule:evenodd"/><polygon points="172.76 136.85 172.76 68.43 232.01 34.21 232.01 102.63 172.76 136.85" style="fill:#f7f8f9;fill-rule:evenodd"/><path d="M282,102.42H252.35V34.62h26.38a38.07,38.07,0,0,1,11.88,1.65,17.06,17.06,0,0,1,7.52,4.46,17.55,17.55,0,0,1,4.56,11.83q0,8-5.14,11.83a18.42,18.42,0,0,1-2.42,1.7q-.68.34-2.43,1.12a17.79,17.79,0,0,1,10,5.67,15.81,15.81,0,0,1,3.73,10.72,18.23,18.23,0,0,1-4.85,12.51Q296,102.42,282,102.42ZM267.48,62.07h7.18q6.3,0,9.36-1.36t3.06-5.87q0-4.51-2.81-6t-9.51-1.46h-7.27Zm0,27.55h10.38q6.5,0,9.75-1.6t3.25-6.31q0-4.7-3.44-6.21t-11-1.5h-8.92Z" style="fill:#fff"/><path d="M372.14,93.06q-10.28,10-25.32,10t-25.32-10q-10.28-10-10.28-25t10.28-25q10.28-10,25.32-10t25.32,10q10.28,10,10.28,25T372.14,93.06ZM367,68.13a22.19,22.19,0,0,0-5.82-15.47,19.19,19.19,0,0,0-28.62,0,22.19,22.19,0,0,0-5.82,15.47,22,22,0,0,0,5.82,15.42,19.29,19.29,0,0,0,28.62,0A22,22,0,0,0,367,68.13Z" style="fill:#fff"/><path d="M426.66,34.62h18.24L423.75,67.31l22.89,35.11H428.21L413.75,80.11,399.4,102.42H381.16L404,67.7,382.71,34.62h18.14l12.9,20.08Z" style="fill:#fff"/><path d="M487.28,47.71v54.71H472.15V47.71H452.94V34.62h53.54v13.1Z" style="fill:#fff"/><path d="M571.86,93.06q-10.28,10-25.32,10t-25.32-10q-10.28-10-10.28-25t10.28-25q10.28-10,25.32-10t25.32,10q10.28,10,10.28,25T571.86,93.06Zm-5.14-24.93a22.19,22.19,0,0,0-5.82-15.47,19.19,19.19,0,0,0-28.62,0,22.19,22.19,0,0,0-5.82,15.47,22,22,0,0,0,5.82,15.42,19.29,19.29,0,0,0,28.62,0A22,22,0,0,0,566.72,68.13Z" style="fill:#fff"/><path d="M608.67,48.15a5.85,5.85,0,0,0-2.18,4.75,5.37,5.37,0,0,0,2.67,4.7q2.67,1.75,12.32,4.12t15,7.13q5.33,4.75,5.33,13.87A18.31,18.31,0,0,1,635,97.52q-6.84,5.67-18,5.67-16.1,0-29-11.93l9-11.06q11,9.6,20.27,9.6A10.64,10.64,0,0,0,623.81,88a5.76,5.76,0,0,0,2.38-4.85,5.65,5.65,0,0,0-2.52-4.85q-2.52-1.79-10-3.64-11.84-2.81-17.31-7.32T590.88,53.2q0-9.65,6.94-14.89t17.31-5.24a41.65,41.65,0,0,1,13.58,2.33A36.39,36.39,0,0,1,640.54,42L632.88,53q-8.83-6.69-18.24-6.69A9.12,9.12,0,0,0,608.67,48.15Z" style="fill:#fff"/><path d="M691.85,34.62H707v67.8H691.85V75.75h-27v26.67H649.75V34.62h15.13V62.94h27Z" style="fill:#fff"/><path d="M775.75,93.06q-10.28,10-25.32,10t-25.32-10q-10.28-10-10.28-25t10.28-25q10.28-10,25.32-10t25.32,10q10.28,10,10.28,25T775.75,93.06Zm-5.14-24.93a22.19,22.19,0,0,0-5.82-15.47,19.19,19.19,0,0,0-28.62,0,22.19,22.19,0,0,0-5.82,15.47,22,22,0,0,0,5.82,15.42,19.29,19.29,0,0,0,28.62,0A22,22,0,0,0,770.61,68.13Z" style="fill:#fff"/><path d="M840.6,40.68q7.13,6.06,7.13,18.62T840.4,77.69q-7.33,5.82-22.36,5.82h-9v18.92H793.89V34.62h24Q833.47,34.62,840.6,40.68ZM829.49,67.36q2.71-3.06,2.72-8.92t-3.54-8.34q-3.54-2.47-11-2.47H809v22.8h10.19Q826.77,70.41,829.49,67.36Z" style="fill:#fff"/></svg>